<svg xmlns="http://www.w3.org/2000/svg" version="1.1" xmlns:xlink="http://www.w3.org/1999/xlink" xmlns:svgjs="http://svgjs.com/svgjs" width="1440" height="560" preserveAspectRatio="none" viewBox="0 0 1440 560"><g mask="url(&quot;#SvgjsMask1013&quot;)" fill="none"><rect width="1440" height="560" x="0" y="0" fill="#1e3266"></rect><path d="M1560 560L0 560 L0 329.16Q42.07 251.23, 120 293.3Q206.78 260.08, 240 346.86Q278.25 265.11, 360 303.36Q447.41 270.77, 480 358.18Q522.51 280.69, 600 323.21Q626.13 277.34, 672 303.47Q723.22 234.69, 792 285.91Q858.76 280.68, 864 347.44Q879.44 290.88, 936 306.32Q1006.25 256.57, 1056 326.83Q1130.86 281.69, 1176 356.55Q1186.11 294.65, 1248 304.76Q1320.3 257.06, 1368 329.36Q1381.3 270.66, 1440 283.96Q1509.98 233.94, 1560 303.92z" fill="rgba(150, 90, 177, 1)"></path><path d="M1464 560L0 560 L0 425.52Q57.07 362.59, 120 419.66Q143.38 371.05, 192 394.43Q235.78 318.21, 312 361.99Q342.22 320.21, 384 350.43Q466.96 313.39, 504 396.36Q577.43 349.8, 624 423.23Q633.21 360.44, 696 369.64Q740.39 342.03, 768 386.42Q847.44 345.87, 888 425.31Q918.35 383.66, 960 414.01Q968.67 350.68, 1032 359.35Q1100.58 307.93, 1152 376.51Q1229.94 334.45, 1272 412.4Q1284.2 352.6, 1344 364.79Q1417.68 318.48, 1464 392.16z" fill="rgba(88, 45, 163, 1)"></path><path d="M1560 560L0 560 L0 502.6Q42.03 472.63, 72 514.67Q95.99 418.66, 192 442.65Q220.65 399.3, 264 427.95Q343.4 387.35, 384 466.74Q455.87 418.61, 504 490.48Q532.93 399.41, 624 428.34Q674.49 406.82, 696 457.31Q749.95 391.26, 816 445.21Q881.73 438.94, 888 504.67Q953.71 450.38, 1008 516.1Q1053.13 441.24, 1128 486.37Q1155.23 393.6, 1248 420.82Q1330.52 383.34, 1368 465.85Q1421.77 447.63, 1440 501.4Q1469.78 411.18, 1560 440.96z" fill="rgba(126, 81, 141, 1)"></path><path d="M1560 560L0 560 L0 577.1Q54.81 511.91, 120 566.73Q145.99 520.72, 192 546.7Q241.86 476.56, 312 526.42Q377.64 520.06, 384 585.69Q420.46 502.15, 504 538.62Q554.34 468.96, 624 519.3Q701.95 477.25, 744 555.19Q812.69 503.88, 864 572.57Q907.35 543.92, 936 587.28Q961.06 492.34, 1056 517.39Q1110.43 451.82, 1176 506.25Q1230.85 489.1, 1248 543.95Q1317.01 492.96, 1368 561.96Q1382.01 503.98, 1440 517.99Q1515.24 473.24, 1560 548.48z" fill="rgba(73, 15, 72, 1)"></path></g><defs><mask id="SvgjsMask1013"><rect width="1440" height="560" fill="#ffffff"></rect></mask></defs></svg>