<svg xmlns="http://www.w3.org/2000/svg" version="1.1" xmlns:xlink="http://www.w3.org/1999/xlink" xmlns:svgjs="http://svgjs.com/svgjs" width="1440" height="560" preserveAspectRatio="none" viewBox="0 0 1440 560"><g mask="url(&quot;#SvgjsMask1006&quot;)" fill="none"><rect width="1440" height="560" x="0" y="0" fill="#0e2a47"></rect><path d="M 0,-2 C 96,31.4 288,151 480,165 C 672,179 768,71.8 960,68 C 1152,64.2 1344,130.4 1440,146L1440 560L0 560z" fill="rgba(177, 77, 142, 1)"></path><path d="M 0,206 C 57.6,231 172.8,335 288,331 C 403.2,327 460.8,186.8 576,186 C 691.2,185.2 748.8,322.8 864,327 C 979.2,331.2 1036.8,214.4 1152,207 C 1267.2,199.6 1382.4,273.4 1440,290L1440 560L0 560z" fill="rgba(172, 113, 219, 1)"></path><path d="M 0,467 C 96,462 288,435.6 480,442 C 672,448.4 768,506 960,499 C 1152,492 1344,425.4 1440,407L1440 560L0 560z" fill="rgba(80, 45, 107, 1)"></path></g><defs><mask id="SvgjsMask1006"><rect width="1440" height="560" fill="#ffffff"></rect></mask></defs></svg>